# xmcd
#
# Track frame offsets: 
#        150
#        16745
#        32422
#        50820
#        66837
#        84290
#        101395
#        117692
#        130185
#        149717
#
# Disc length: 2168 seconds
#
# Revision: 1
# Processed by: cddbd v1.5.2PL0 Copyright (c) Steve Scherf et al.
# Submitted via: ExactAudioCopy v0.95b4
#
DISCID=8708760a
DTITLE=Steve Wariner - Greatest Hits Volume II
DYEAR=1991
DGENRE=Country
TTITLE0=Baby I'm Yours
TTITLE1=I Should Be With You
TTITLE2=Hold On (A Little Longer)
TTITLE3=Where Did I Go Wrong
TTITLE4=I Got Dreams
TTITLE5=When I Could Come Home To You
TTITLE6=The Domino Theory
TTITLE7=Precious Thing
TTITLE8=There For Awhile
TTITLE9=L-O-V-E, Love
EXTD=
EXTT0=
EXTT1=
EXTT2=
EXTT3=
EXTT4=
EXTT5=
EXTT6=
EXTT7=
EXTT8=
EXTT9=
PLAYORDER=
